<svg width="76" height="28" viewBox="0 0 76 28" fill="none" xmlns="http://www.w3.org/2000/svg">
<path d="M2.35757 25.9035H3.29515C3.44694 25.9035 3.59428 25.8789 3.73714 25.8298C3.88001 25.7807 4.00725 25.7003 4.11887 25.5887C4.23048 25.4726 4.31978 25.3231 4.38675 25.14C4.45372 24.957 4.4872 24.7337 4.4872 24.4703C4.4872 24.2292 4.46265 24.0127 4.41354 23.8207C4.36889 23.6243 4.29299 23.4569 4.18584 23.3185C4.07869 23.1801 3.93582 23.0751 3.75723 23.0037C3.58311 22.9278 3.36658 22.8899 3.10763 22.8899H2.35757V25.9035ZM1.30615 22.0059H3.36881C3.67687 22.0059 3.96261 22.055 4.22602 22.1532C4.4939 22.2514 4.72383 22.3987 4.91581 22.5952C5.11225 22.7916 5.26405 23.0372 5.3712 23.3319C5.48281 23.6265 5.53862 23.9725 5.53862 24.3699C5.53862 24.7181 5.49398 25.0396 5.40468 25.3342C5.31539 25.6289 5.17922 25.8834 4.99617 26.0977C4.81758 26.312 4.59212 26.4817 4.31978 26.6067C4.0519 26.7272 3.73491 26.7875 3.36881 26.7875H1.30615V22.0059Z" fill="white"/>
<path d="M8.56705 24.6846C8.52241 24.4435 8.44204 24.2605 8.32596 24.1355C8.21435 24.0105 8.04246 23.948 7.8103 23.948C7.6585 23.948 7.53126 23.9748 7.42857 24.0283C7.33035 24.0774 7.24999 24.14 7.18748 24.2159C7.12944 24.2918 7.08703 24.3721 7.06024 24.4569C7.03792 24.5418 7.02452 24.6177 7.02006 24.6846H8.56705ZM7.02006 25.2874C7.03345 25.5954 7.11158 25.8187 7.25445 25.9571C7.39732 26.0955 7.60269 26.1647 7.87057 26.1647C8.06255 26.1647 8.22774 26.1178 8.36615 26.024C8.50455 25.9258 8.58938 25.8231 8.62063 25.716H9.45775C9.32381 26.1312 9.11844 26.4281 8.84163 26.6067C8.56482 26.7852 8.22997 26.8745 7.83709 26.8745C7.56474 26.8745 7.31919 26.8321 7.10042 26.7473C6.88166 26.658 6.69637 26.533 6.54458 26.3723C6.39278 26.2115 6.27447 26.0196 6.18964 25.7963C6.10927 25.5731 6.06909 25.3275 6.06909 25.0597C6.06909 24.8007 6.11151 24.5596 6.19633 24.3364C6.28116 24.1132 6.40171 23.9212 6.55797 23.7605C6.71423 23.5953 6.89951 23.4658 7.11382 23.372C7.33258 23.2783 7.57367 23.2314 7.83709 23.2314C8.13175 23.2314 8.38847 23.2894 8.60723 23.4055C8.826 23.5171 9.00459 23.6689 9.14299 23.8609C9.28586 24.0529 9.38855 24.2717 9.45105 24.5172C9.51355 24.7628 9.53588 25.0195 9.51802 25.2874H7.02006Z" fill="white"/>
<path d="M11.8969 26.1647C12.0532 26.1647 12.1826 26.1334 12.2853 26.0709C12.3925 26.0084 12.4773 25.928 12.5398 25.8298C12.6068 25.7271 12.6537 25.6088 12.6804 25.4749C12.7072 25.3409 12.7206 25.2048 12.7206 25.0664C12.7206 24.928 12.705 24.7918 12.6737 24.6579C12.647 24.5239 12.6001 24.4056 12.5331 24.3029C12.4661 24.1958 12.3791 24.1109 12.2719 24.0484C12.1692 23.9815 12.042 23.948 11.8902 23.948C11.7339 23.948 11.6022 23.9815 11.4951 24.0484C11.3924 24.1109 11.3076 24.1935 11.2406 24.2962C11.1781 24.3989 11.1334 24.5172 11.1067 24.6512C11.0799 24.7851 11.0665 24.9235 11.0665 25.0664C11.0665 25.2048 11.0799 25.3409 11.1067 25.4749C11.1379 25.6088 11.1848 25.7271 11.2473 25.8298C11.3143 25.928 11.4013 26.0084 11.5085 26.0709C11.6156 26.1334 11.7451 26.1647 11.8969 26.1647ZM10.149 23.3252H11.0531V23.7672H11.0665C11.1826 23.5796 11.3299 23.4435 11.5085 23.3586C11.6871 23.2738 11.8835 23.2314 12.0978 23.2314C12.3702 23.2314 12.6045 23.2827 12.801 23.3854C12.9974 23.4881 13.1604 23.6243 13.2899 23.7939C13.4193 23.9636 13.5153 24.1623 13.5778 24.39C13.6403 24.6132 13.6716 24.8476 13.6716 25.0932C13.6716 25.3253 13.6403 25.5485 13.5778 25.7628C13.5153 25.9771 13.4193 26.1669 13.2899 26.3321C13.1649 26.4973 13.0064 26.629 12.8144 26.7272C12.6269 26.8254 12.4059 26.8745 12.1514 26.8745C11.9371 26.8745 11.7384 26.8321 11.5554 26.7473C11.3768 26.658 11.2294 26.5285 11.1134 26.3589H11.1V27.9996H10.149V23.3252Z" fill="white"/>
<path d="M14.2698 24.39C14.2832 24.1667 14.339 23.9815 14.4372 23.8341C14.5355 23.6868 14.6605 23.5685 14.8123 23.4792C14.9641 23.3899 15.1337 23.3274 15.3212 23.2917C15.5132 23.2515 15.7052 23.2314 15.8972 23.2314C16.0713 23.2314 16.2476 23.2448 16.4262 23.2716C16.6048 23.2939 16.7678 23.3408 16.9151 23.4122C17.0624 23.4837 17.183 23.5841 17.2767 23.7136C17.3705 23.8386 17.4174 24.006 17.4174 24.2159V26.0173C17.4174 26.1736 17.4263 26.3232 17.4442 26.466C17.462 26.6089 17.4933 26.716 17.5379 26.7875H16.5736C16.5557 26.7339 16.5401 26.6803 16.5267 26.6268C16.5178 26.5687 16.5111 26.5107 16.5066 26.4526C16.3548 26.6089 16.1762 26.7183 15.9708 26.7808C15.7655 26.8433 15.5556 26.8745 15.3413 26.8745C15.1761 26.8745 15.0221 26.8544 14.8792 26.8143C14.7364 26.7741 14.6114 26.7116 14.5042 26.6268C14.3971 26.5419 14.3122 26.4348 14.2497 26.3053C14.1917 26.1758 14.1627 26.0218 14.1627 25.8432C14.1627 25.6468 14.1961 25.486 14.2631 25.361C14.3346 25.2316 14.4238 25.1289 14.531 25.053C14.6426 24.9771 14.7676 24.9213 14.906 24.8855C15.0489 24.8454 15.1918 24.8141 15.3346 24.7918C15.4775 24.7695 15.6181 24.7516 15.7565 24.7382C15.8949 24.7248 16.0177 24.7047 16.1249 24.6779C16.232 24.6512 16.3168 24.6132 16.3794 24.5641C16.4419 24.5105 16.4709 24.4346 16.4664 24.3364C16.4664 24.2337 16.4486 24.1533 16.4128 24.0953C16.3816 24.0328 16.3369 23.9859 16.2789 23.9547C16.2253 23.919 16.1606 23.8966 16.0847 23.8877C16.0133 23.8743 15.9351 23.8676 15.8503 23.8676C15.6628 23.8676 15.5154 23.9078 15.4083 23.9882C15.3011 24.0685 15.2386 24.2025 15.2208 24.39H14.2698ZM16.4664 25.0932C16.4262 25.1289 16.3749 25.1579 16.3124 25.1802C16.2543 25.1981 16.1896 25.2137 16.1182 25.2271C16.0512 25.2405 15.9798 25.2516 15.9039 25.2606C15.828 25.2695 15.7521 25.2807 15.6762 25.2941C15.6047 25.3075 15.5333 25.3253 15.4619 25.3476C15.3949 25.37 15.3346 25.4012 15.2811 25.4414C15.2319 25.4771 15.1918 25.524 15.1605 25.582C15.1293 25.6401 15.1136 25.7137 15.1136 25.803C15.1136 25.8879 15.1293 25.9593 15.1605 26.0173C15.1918 26.0754 15.2342 26.1222 15.2878 26.158C15.3413 26.1892 15.4038 26.2115 15.4753 26.2249C15.5467 26.2383 15.6204 26.245 15.6963 26.245C15.8838 26.245 16.0289 26.2138 16.1316 26.1513C16.2343 26.0888 16.3102 26.0151 16.3593 25.9303C16.4084 25.841 16.4374 25.7517 16.4463 25.6624C16.4597 25.5731 16.4664 25.5017 16.4664 25.4481V25.0932Z" fill="white"/>
<path d="M18.2225 23.3252H19.1266V23.9681H19.14C19.1846 23.8609 19.2449 23.7627 19.3208 23.6734C19.3967 23.5796 19.4837 23.5015 19.582 23.439C19.6802 23.372 19.7851 23.3207 19.8967 23.285C20.0083 23.2493 20.1244 23.2314 20.245 23.2314C20.3075 23.2314 20.3767 23.2426 20.4526 23.2649V24.1489C20.4079 24.14 20.3543 24.1333 20.2918 24.1288C20.2293 24.1199 20.1691 24.1154 20.111 24.1154C19.9369 24.1154 19.7896 24.1444 19.669 24.2025C19.5485 24.2605 19.4503 24.3409 19.3744 24.4435C19.3029 24.5418 19.2516 24.6579 19.2203 24.7918C19.1891 24.9257 19.1734 25.0708 19.1734 25.2271V26.7875H18.2225V23.3252Z" fill="white"/>
<path d="M22.0978 23.3252H22.7943V23.9614H22.0978V25.6758C22.0978 25.8365 22.1246 25.9437 22.1782 25.9972C22.2318 26.0508 22.3389 26.0776 22.4996 26.0776C22.5532 26.0776 22.6045 26.0754 22.6537 26.0709C22.7028 26.0664 22.7496 26.0597 22.7943 26.0508V26.7875C22.7139 26.8009 22.6246 26.8098 22.5264 26.8143C22.4282 26.8187 22.3322 26.821 22.2384 26.821C22.0911 26.821 21.9505 26.8098 21.8165 26.7875C21.6871 26.7696 21.571 26.7317 21.4683 26.6736C21.3701 26.6156 21.2919 26.533 21.2339 26.4258C21.1759 26.3187 21.1468 26.1781 21.1468 26.0039V23.9614H20.5709V23.3252H21.1468V22.2871H22.0978V23.3252Z" fill="white"/>
<path d="M23.3405 23.3252H24.2379V23.7939H24.2513C24.3763 23.6154 24.5259 23.477 24.7 23.3787C24.8786 23.2805 25.0817 23.2314 25.3094 23.2314C25.5282 23.2314 25.7269 23.2738 25.9054 23.3586C26.0885 23.4435 26.2269 23.593 26.3207 23.8073C26.4233 23.6555 26.5617 23.5216 26.7359 23.4055C26.9145 23.2894 27.1243 23.2314 27.3654 23.2314C27.5484 23.2314 27.7181 23.2537 27.8743 23.2984C28.0306 23.343 28.1645 23.4145 28.2762 23.5127C28.3878 23.6109 28.4748 23.7404 28.5373 23.9011C28.5998 24.0574 28.6311 24.2471 28.6311 24.4703V26.7875H27.6801V24.8253C27.6801 24.7092 27.6757 24.5998 27.6667 24.4971C27.6578 24.3944 27.6333 24.3051 27.5931 24.2292C27.5529 24.1533 27.4926 24.0931 27.4123 24.0484C27.3364 24.0038 27.2314 23.9815 27.0975 23.9815C26.9636 23.9815 26.8542 24.0082 26.7694 24.0618C26.689 24.1109 26.6243 24.1779 26.5751 24.2627C26.5305 24.3431 26.4992 24.4369 26.4814 24.544C26.468 24.6467 26.4613 24.7516 26.4613 24.8588V26.7875H25.5103V24.8454C25.5103 24.7427 25.5081 24.6422 25.5036 24.544C25.4992 24.4413 25.4791 24.3476 25.4434 24.2627C25.4121 24.1779 25.3563 24.1109 25.2759 24.0618C25.2 24.0082 25.0862 23.9815 24.9344 23.9815C24.8897 23.9815 24.8295 23.9926 24.7536 24.0149C24.6821 24.0328 24.6107 24.0708 24.5393 24.1288C24.4723 24.1824 24.4143 24.2627 24.3651 24.3699C24.316 24.4726 24.2915 24.6087 24.2915 24.7784V26.7875H23.3405V23.3252Z" fill="white"/>
<path d="M31.7803 24.6846C31.7357 24.4435 31.6553 24.2605 31.5393 24.1355C31.4276 24.0105 31.2557 23.948 31.0236 23.948C30.8718 23.948 30.7445 23.9748 30.6419 24.0283C30.5436 24.0774 30.4633 24.14 30.4008 24.2159C30.3427 24.2918 30.3003 24.3721 30.2735 24.4569C30.2512 24.5418 30.2378 24.6177 30.2333 24.6846H31.7803ZM30.2333 25.2874C30.2467 25.5954 30.3249 25.8187 30.4677 25.9571C30.6106 26.0955 30.816 26.1647 31.0839 26.1647C31.2758 26.1647 31.441 26.1178 31.5794 26.024C31.7178 25.9258 31.8027 25.8231 31.8339 25.716H32.671C32.5371 26.1312 32.3317 26.4281 32.0549 26.6067C31.7781 26.7852 31.4433 26.8745 31.0504 26.8745C30.778 26.8745 30.5325 26.8321 30.3137 26.7473C30.0949 26.658 29.9097 26.533 29.7579 26.3723C29.6061 26.2115 29.4878 26.0196 29.4029 25.7963C29.3226 25.5731 29.2824 25.3275 29.2824 25.0597C29.2824 24.8007 29.3248 24.5596 29.4096 24.3364C29.4944 24.1132 29.615 23.9212 29.7713 23.7605C29.9275 23.5953 30.1128 23.4658 30.3271 23.372C30.5459 23.2783 30.787 23.2314 31.0504 23.2314C31.345 23.2314 31.6018 23.2894 31.8205 23.4055C32.0393 23.5171 32.2179 23.6689 32.3563 23.8609C32.4991 24.0529 32.6018 24.2717 32.6643 24.5172C32.7268 24.7628 32.7492 25.0195 32.7313 25.2874H30.2333Z" fill="white"/>
<path d="M33.3623 23.3252H34.2664V23.8073H34.2865C34.407 23.6064 34.5633 23.4613 34.7552 23.372C34.9472 23.2783 35.1437 23.2314 35.3446 23.2314C35.5991 23.2314 35.8067 23.2671 35.9674 23.3386C36.1326 23.4055 36.2621 23.5015 36.3558 23.6265C36.4496 23.7471 36.5143 23.8966 36.55 24.0752C36.5902 24.2493 36.6103 24.4435 36.6103 24.6579V26.7875H35.6593V24.832C35.6593 24.5462 35.6147 24.3342 35.5254 24.1958C35.4361 24.0529 35.2776 23.9815 35.0499 23.9815C34.791 23.9815 34.6035 24.0596 34.4874 24.2159C34.3713 24.3676 34.3133 24.6199 34.3133 24.9726V26.7875H33.3623V23.3252Z" fill="white"/>
<path d="M38.6045 23.3252H39.301V23.9614H38.6045V25.6758C38.6045 25.8365 38.6313 25.9437 38.6848 25.9972C38.7384 26.0508 38.8456 26.0776 39.0063 26.0776C39.0599 26.0776 39.1112 26.0754 39.1603 26.0709C39.2094 26.0664 39.2563 26.0597 39.301 26.0508V26.7875C39.2206 26.8009 39.1313 26.8098 39.0331 26.8143C38.9349 26.8187 38.8389 26.821 38.7451 26.821C38.5978 26.821 38.4571 26.8098 38.3232 26.7875C38.1937 26.7696 38.0776 26.7317 37.975 26.6736C37.8767 26.6156 37.7986 26.533 37.7406 26.4258C37.6825 26.3187 37.6535 26.1781 37.6535 26.0039V23.9614H37.0776V23.3252H37.6535V22.2871H38.6045V23.3252Z" fill="white"/>
<path d="M42.5951 25.0597C42.5951 25.1981 42.6085 25.3342 42.6353 25.4682C42.662 25.5977 42.7067 25.716 42.7692 25.8231C42.8362 25.9258 42.9232 26.0084 43.0304 26.0709C43.1375 26.1334 43.2715 26.1647 43.4322 26.1647C43.5929 26.1647 43.7268 26.1334 43.834 26.0709C43.9456 26.0084 44.0327 25.9258 44.0952 25.8231C44.1622 25.716 44.209 25.5977 44.2358 25.4682C44.2626 25.3342 44.276 25.1981 44.276 25.0597C44.276 24.9213 44.2626 24.7851 44.2358 24.6512C44.209 24.5172 44.1622 24.3989 44.0952 24.2962C44.0327 24.1935 43.9456 24.1109 43.834 24.0484C43.7268 23.9815 43.5929 23.948 43.4322 23.948C43.2715 23.948 43.1375 23.9815 43.0304 24.0484C42.9232 24.1109 42.8362 24.1935 42.7692 24.2962C42.7067 24.3989 42.662 24.5172 42.6353 24.6512C42.6085 24.7851 42.5951 24.9213 42.5951 25.0597ZM41.6441 25.0597C41.6441 24.7829 41.6865 24.5328 41.7713 24.3096C41.8562 24.0819 41.9767 23.8899 42.133 23.7337C42.2892 23.5729 42.4768 23.4502 42.6955 23.3653C42.9143 23.276 43.1598 23.2314 43.4322 23.2314C43.7045 23.2314 43.9501 23.276 44.1688 23.3653C44.3921 23.4502 44.5818 23.5729 44.7381 23.7337C44.8944 23.8899 45.0149 24.0819 45.0997 24.3096C45.1846 24.5328 45.227 24.7829 45.227 25.0597C45.227 25.3365 45.1846 25.5865 45.0997 25.8097C45.0149 26.033 44.8944 26.2249 44.7381 26.3857C44.5818 26.5419 44.3921 26.6625 44.1688 26.7473C43.9501 26.8321 43.7045 26.8745 43.4322 26.8745C43.1598 26.8745 42.9143 26.8321 42.6955 26.7473C42.4768 26.6625 42.2892 26.5419 42.133 26.3857C41.9767 26.2249 41.8562 26.033 41.7713 25.8097C41.6865 25.5865 41.6441 25.3365 41.6441 25.0597Z" fill="white"/>
<path d="M46.1199 23.9614H45.5506V23.3252H46.1199V23.0573C46.1199 22.7492 46.2159 22.497 46.4078 22.3005C46.5998 22.1041 46.89 22.0059 47.2784 22.0059C47.3633 22.0059 47.4481 22.0103 47.5329 22.0193C47.6177 22.0237 47.7003 22.0282 47.7807 22.0326V22.7425C47.6691 22.7291 47.553 22.7224 47.4325 22.7224C47.303 22.7224 47.2092 22.7537 47.1512 22.8162C47.0976 22.8742 47.0708 22.9747 47.0708 23.1176V23.3252H47.7271V23.9614H47.0708V26.7875H46.1199V23.9614Z" fill="white"/>
<path d="M50.2407 22.0059H53.6025V22.8899H51.2921V23.9949H53.2945V24.8119H51.2921V26.7875H50.2407V22.0059Z" fill="white"/>
<path d="M55.1547 22.7894H54.2038V22.0059H55.1547V22.7894ZM54.2038 23.3252H55.1547V26.7875H54.2038V23.3252Z" fill="white"/>
<path d="M55.9705 23.3252H56.8746V23.8073H56.8947C57.0152 23.6064 57.1715 23.4613 57.3635 23.372C57.5554 23.2783 57.7519 23.2314 57.9528 23.2314C58.2073 23.2314 58.4149 23.2671 58.5756 23.3386C58.7408 23.4055 58.8703 23.5015 58.964 23.6265C59.0578 23.7471 59.1225 23.8966 59.1582 24.0752C59.1984 24.2493 59.2185 24.4435 59.2185 24.6579V26.7875H58.2675V24.832C58.2675 24.5462 58.2229 24.3342 58.1336 24.1958C58.0443 24.0529 57.8858 23.9815 57.6581 23.9815C57.3992 23.9815 57.2117 24.0596 57.0956 24.2159C56.9795 24.3676 56.9215 24.6199 56.9215 24.9726V26.7875H55.9705V23.3252Z" fill="white"/>
<path d="M59.967 24.39C59.9804 24.1667 60.0363 23.9815 60.1345 23.8341C60.2327 23.6868 60.3577 23.5685 60.5095 23.4792C60.6613 23.3899 60.831 23.3274 61.0185 23.2917C61.2104 23.2515 61.4024 23.2314 61.5944 23.2314C61.7685 23.2314 61.9449 23.2448 62.1235 23.2716C62.3021 23.2939 62.465 23.3408 62.6123 23.4122C62.7597 23.4837 62.8802 23.5841 62.974 23.7136C63.0677 23.8386 63.1146 24.006 63.1146 24.2159V26.0173C63.1146 26.1736 63.1235 26.3232 63.1414 26.466C63.1593 26.6089 63.1905 26.716 63.2352 26.7875H62.2708C62.2529 26.7339 62.2373 26.6803 62.2239 26.6268C62.215 26.5687 62.2083 26.5107 62.2038 26.4526C62.052 26.6089 61.8734 26.7183 61.6681 26.7808C61.4627 26.8433 61.2529 26.8745 61.0386 26.8745C60.8734 26.8745 60.7193 26.8544 60.5765 26.8143C60.4336 26.7741 60.3086 26.7116 60.2014 26.6268C60.0943 26.5419 60.0095 26.4348 59.947 26.3053C59.8889 26.1758 59.8599 26.0218 59.8599 25.8432C59.8599 25.6468 59.8934 25.486 59.9604 25.361C60.0318 25.2316 60.1211 25.1289 60.2282 25.053C60.3398 24.9771 60.4649 24.9213 60.6033 24.8855C60.7461 24.8454 60.889 24.8141 61.0319 24.7918C61.1747 24.7695 61.3154 24.7516 61.4538 24.7382C61.5922 24.7248 61.715 24.7047 61.8221 24.6779C61.9293 24.6512 62.0141 24.6132 62.0766 24.5641C62.1391 24.5105 62.1681 24.4346 62.1636 24.3364C62.1636 24.2337 62.1458 24.1533 62.1101 24.0953C62.0788 24.0328 62.0342 23.9859 61.9761 23.9547C61.9226 23.919 61.8578 23.8966 61.7819 23.8877C61.7105 23.8743 61.6324 23.8676 61.5475 23.8676C61.36 23.8676 61.2127 23.9078 61.1055 23.9882C60.9984 24.0685 60.9359 24.2025 60.918 24.39H59.967ZM62.1636 25.0932C62.1235 25.1289 62.0721 25.1579 62.0096 25.1802C61.9516 25.1981 61.8868 25.2137 61.8154 25.2271C61.7484 25.2405 61.677 25.2516 61.6011 25.2606C61.5252 25.2695 61.4493 25.2807 61.3734 25.2941C61.302 25.3075 61.2305 25.3253 61.1591 25.3476C61.0921 25.37 61.0319 25.4012 60.9783 25.4414C60.9292 25.4771 60.889 25.524 60.8577 25.582C60.8265 25.6401 60.8109 25.7137 60.8109 25.803C60.8109 25.8879 60.8265 25.9593 60.8577 26.0173C60.889 26.0754 60.9314 26.1222 60.985 26.158C61.0386 26.1892 61.1011 26.2115 61.1725 26.2249C61.2439 26.2383 61.3176 26.245 61.3935 26.245C61.581 26.245 61.7261 26.2138 61.8288 26.1513C61.9315 26.0888 62.0074 26.0151 62.0565 25.9303C62.1056 25.841 62.1346 25.7517 62.1436 25.6624C62.1569 25.5731 62.1636 25.5017 62.1636 25.4481V25.0932Z" fill="white"/>
<path d="M63.9197 23.3252H64.8238V23.8073H64.8439C64.9644 23.6064 65.1207 23.4613 65.3127 23.372C65.5047 23.2783 65.7011 23.2314 65.902 23.2314C66.1565 23.2314 66.3641 23.2671 66.5248 23.3386C66.69 23.4055 66.8195 23.5015 66.9132 23.6265C67.007 23.7471 67.0717 23.8966 67.1075 24.0752C67.1476 24.2493 67.1677 24.4435 67.1677 24.6579V26.7875H66.2168V24.832C66.2168 24.5462 66.1721 24.3342 66.0828 24.1958C65.9935 24.0529 65.835 23.9815 65.6073 23.9815C65.3484 23.9815 65.1609 24.0596 65.0448 24.2159C64.9287 24.3676 64.8707 24.6199 64.8707 24.9726V26.7875H63.9197V23.3252Z" fill="white"/>
<path d="M70.3138 24.544C70.2513 24.1466 70.0169 23.948 69.6106 23.948C69.4588 23.948 69.3316 23.9837 69.2289 24.0551C69.1262 24.1221 69.0414 24.2114 68.9744 24.323C68.9119 24.4302 68.8672 24.5507 68.8404 24.6846C68.8137 24.8141 68.8003 24.9436 68.8003 25.0731C68.8003 25.1981 68.8137 25.3253 68.8404 25.4548C68.8672 25.5843 68.9096 25.7026 68.9677 25.8097C69.0302 25.9124 69.1128 25.9972 69.2155 26.0642C69.3182 26.1312 69.4432 26.1647 69.5905 26.1647C69.8182 26.1647 69.9923 26.1022 70.1129 25.9771C70.2379 25.8477 70.316 25.6758 70.3473 25.4615H71.2647C71.2022 25.9213 71.0237 26.2718 70.729 26.5129C70.4343 26.754 70.0571 26.8745 69.5972 26.8745C69.3382 26.8745 69.0994 26.8321 68.8806 26.7473C68.6663 26.658 68.4833 26.5352 68.3315 26.379C68.1797 26.2227 68.0614 26.0374 67.9765 25.8231C67.8917 25.6044 67.8493 25.3655 67.8493 25.1065C67.8493 24.8387 67.8873 24.5909 67.9632 24.3632C68.0435 24.131 68.1596 23.9323 68.3114 23.7672C68.4632 23.5975 68.6485 23.4658 68.8672 23.372C69.086 23.2783 69.336 23.2314 69.6173 23.2314C69.8227 23.2314 70.0191 23.2582 70.2066 23.3118C70.3986 23.3653 70.5683 23.4479 70.7156 23.5596C70.8674 23.6667 70.9902 23.8029 71.0839 23.9681C71.1777 24.1288 71.2313 24.3208 71.2447 24.544H70.3138Z" fill="white"/>
<path d="M74.1995 24.6846C74.1548 24.4435 74.0745 24.2605 73.9584 24.1355C73.8468 24.0105 73.6749 23.948 73.4427 23.948C73.2909 23.948 73.1637 23.9748 73.061 24.0283C72.9628 24.0774 72.8824 24.14 72.8199 24.2159C72.7619 24.2918 72.7194 24.3721 72.6927 24.4569C72.6703 24.5418 72.6569 24.6177 72.6525 24.6846H74.1995ZM72.6525 25.2874C72.6659 25.5954 72.744 25.8187 72.8869 25.9571C73.0297 26.0955 73.2351 26.1647 73.503 26.1647C73.695 26.1647 73.8602 26.1178 73.9986 26.024C74.137 25.9258 74.2218 25.8231 74.2531 25.716H75.0902C74.9562 26.1312 74.7509 26.4281 74.474 26.6067C74.1972 26.7852 73.8624 26.8745 73.4695 26.8745C73.1972 26.8745 72.9516 26.8321 72.7328 26.7473C72.5141 26.658 72.3288 26.533 72.177 26.3723C72.0252 26.2115 71.9069 26.0196 71.8221 25.7963C71.7417 25.5731 71.7015 25.3275 71.7015 25.0597C71.7015 24.8007 71.7439 24.5596 71.8288 24.3364C71.9136 24.1132 72.0341 23.9212 72.1904 23.7605C72.3466 23.5953 72.5319 23.4658 72.7462 23.372C72.965 23.2783 73.2061 23.2314 73.4695 23.2314C73.7642 23.2314 74.0209 23.2894 74.2397 23.4055C74.4584 23.5171 74.637 23.6689 74.7754 23.8609C74.9183 24.0529 75.021 24.2717 75.0835 24.5172C75.146 24.7628 75.1683 25.0195 75.1504 25.2874H72.6525Z" fill="white"/>
<g clip-path="url(#clip0_1771_5998)">
<path d="M1.86326 0.158012L0.84375 1.17172V18.3683L1.96865 19.4817H6.96084L8.26954 18.1836V13.3119L14.4503 19.4428H19.3249L20.5527 18.2249V8.24824L26.7948 14.4399V18.3708L27.9663 19.5328H32.9977L34.174 18.3635V14.5055L40.3744 8.35521V15.9009L44.0016 19.4963H56.4195L60.0001 15.9447V12.1548L58.9022 11.0657H52.562V12.4611H47.761V7.13243H52.5449V8.34791H58.8703L59.9976 7.22967V3.56622L56.4416 0.0388953H44.1265L40.3695 3.76312V1.18145L39.1809 0H34.1985L32.858 1.32973L32.8506 3.93572L30.6523 6.11629L28.3265 3.81174V1.29813L27.1526 0.133703H21.8124L20.5944 1.34189L19.271 0.0291715H14.3499L13.1147 1.25437V5.99961L7.09073 0.0243096L1.98335 0.0413263L1.86326 0.158012Z" fill="white"/>
<path d="M59.3068 0C59.2157 0 59.1256 0.0181567 59.0415 0.0534334C58.9574 0.0887101 58.8809 0.140416 58.8166 0.205599C58.6866 0.337242 58.6135 0.515787 58.6135 0.701958C58.6135 0.888129 58.6866 1.06668 58.8166 1.19832C58.8809 1.2635 58.9574 1.31521 59.0415 1.35048C59.1256 1.38576 59.2157 1.40392 59.3068 1.40392C59.4906 1.40392 59.667 1.32996 59.797 1.19832C59.927 1.06668 60 0.888129 60 0.701958C60 0.609776 59.9821 0.518496 59.9472 0.433331C59.9124 0.348165 59.8613 0.270782 59.797 0.205599C59.7326 0.140416 59.6562 0.0887101 59.5721 0.0534334C59.4879 0.0181567 59.3978 0 59.3068 0ZM59.3068 1.26353C59.001 1.26353 58.7522 1.01152 58.7522 0.701958C58.7522 0.392395 59.001 0.140392 59.3068 0.140392C59.6125 0.140392 59.8614 0.392395 59.8614 0.701958C59.8614 1.01152 59.6125 1.26353 59.3068 1.26353ZM59.3241 0.791107H59.2243V1.01784H59.0988V0.400818H59.3248C59.3962 0.400818 59.4517 0.416963 59.4912 0.449253C59.53 0.482245 59.5494 0.526469 59.5494 0.586837C59.5494 0.628955 59.5404 0.664053 59.5224 0.692131C59.5043 0.720209 59.4773 0.742672 59.4406 0.758817L59.5723 1.01082V1.01784H59.4378L59.3241 0.791107ZM59.2243 0.688621H59.3255C59.3567 0.688621 59.3809 0.680198 59.3983 0.664053C59.4156 0.647908 59.4239 0.625445 59.4239 0.596665C59.4239 0.567884 59.4163 0.545422 59.3997 0.528575C59.3837 0.511728 59.3588 0.504006 59.3248 0.504006H59.2243V0.688621Z" fill="white"/>
</g>
</svg>
